# xmcd CD database file
#
# Track frame offsets:
#	150
#	14700
#	28326
#	41469
#	55608
#	68797
#	81992
#	94727
#	107335
#	122536
#	137890
#
# Disc length: 2019 seconds
#
# Revision: 0
# Processed by: cddbd v1.5.2PL0 Copyright (c) Steve Scherf et al.
# Submitted via: CDex 1.94
#
DISCID=8f07e10b
DTITLE=LOCASH - Brothers
DYEAR=2019
DGENRE=Country
TTITLE0=One Big Country Song
TTITLE1=How Much Time Do You Got
TTITLE2=Brothers
TTITLE3=Summer In A Truck
TTITLE4=God Thing
TTITLE5=It's Only Midnight
TTITLE6=Feels Like A Party
TTITLE7=Secret Weapon
TTITLE8=Cold Beer Kinda Night
TTITLE9=Kissing A Girl
TTITLE10=Beers To Catch Up On
EXTD=YEAR: 2019
EXTT0=
EXTT1=
EXTT2=
EXTT3=
EXTT4=
EXTT5=
EXTT6=
EXTT7=
EXTT8=
EXTT9=
EXTT10=
PLAYORDER=
